<?xml version="1.0" encoding="UTF-8" standalone="no"?>
<!DOCTYPE svg PUBLIC "-//W3C//DTD SVG 1.1//EN" "http://www.w3.org/Graphics/SVG/1.1/DTD/svg11.dtd">
<svg xmlns="http://www.w3.org/2000/svg" xmlns:xlink="http://www.w3.org/1999/xlink" xml:space="preserve" font-family="monospace" font-size="24" fill="rgb(255,255,255)" stroke="rgb(0,0,0)" viewBox="0 0 790 905">
<g transform="scale(1.09359)">
<path style="fill:none;stroke-width:3" stroke="rgb(0,0,0)" d="M322,395 Q347,384 372,373"/>
<path style="fill:none;stroke-width:3" stroke="rgb(0,0,0)" d="M310,367 Q335,356 360,345"/>
<path style="fill:none;stroke-width:3" stroke="rgb(0,0,0)" d="M298,339 Q323,328 348,317"/>
<path style="fill:none;stroke-width:3" stroke="rgb(0,0,0)" d="M286,311 Q311,300 336,289"/>
<path style="fill:none;stroke-width:3" stroke="rgb(0,0,0)" d="M248,225 Q273,214 298,203"/>
<path style="fill:none;stroke-width:3" stroke="rgb(0,0,0)" d="M236,197 Q261,186 286,175"/>
<line style="fill:none;stroke-width:1" stroke="rgb(0,0,0)" x1="250" y1="481" x2="322" y2="395"/> <circle style="stroke-width:1" cx="250" cy="481" r="12" fill="rgb(255,255,255)" stroke="rgb(0,0,0)"/> <text x="242" y="489" fill="rgb(0,0,0)" stroke="rgb(0,0,0)">T</text>
<line style="fill:none;stroke-width:1" stroke="rgb(0,0,0)" x1="322" y1="395" x2="310" y2="367"/> <circle style="stroke-width:1" cx="322" cy="395" r="12" fill="rgb(255,255,255)" stroke="rgb(0,0,0)"/> <text x="314" y="403" fill="rgb(0,0,0)" stroke="rgb(0,0,0)">G</text>
<line style="fill:none;stroke-width:1" stroke="rgb(0,0,0)" x1="310" y1="367" x2="298" y2="339"/> <circle style="stroke-width:1" cx="310" cy="367" r="12" fill="rgb(255,255,255)" stroke="rgb(0,0,0)"/> <text x="302" y="375" fill="rgb(0,0,0)" stroke="rgb(0,0,0)">C</text>
<line style="fill:none;stroke-width:1" stroke="rgb(0,0,0)" x1="298" y1="339" x2="286" y2="311"/> <circle style="stroke-width:1" cx="298" cy="339" r="12" fill="rgb(255,255,255)" stroke="rgb(0,0,0)"/> <text x="290" y="347" fill="rgb(0,0,0)" stroke="rgb(0,0,0)">G</text>
<line style="fill:none;stroke-width:1" stroke="rgb(0,0,0)" x1="286" y1="311" x2="249" y2="276"/> <circle style="stroke-width:1" cx="286" cy="311" r="12" fill="rgb(255,255,255)" stroke="rgb(0,0,0)"/> <text x="278" y="319" fill="rgb(0,0,0)" stroke="rgb(0,0,0)">C</text>
<line style="fill:none;stroke-width:1" stroke="rgb(0,0,0)" x1="249" y1="276" x2="248" y2="225"/> <circle style="stroke-width:1" cx="249" cy="276" r="12" fill="rgb(255,255,255)" stroke="rgb(0,0,0)"/> <text x="241" y="284" fill="rgb(0,0,0)" stroke="rgb(0,0,0)">T</text>
<line style="fill:none;stroke-width:1" stroke="rgb(0,0,0)" x1="248" y1="225" x2="236" y2="197"/> <circle style="stroke-width:1" cx="248" cy="225" r="12" fill="rgb(255,255,255)" stroke="rgb(0,0,0)"/> <text x="240" y="233" fill="rgb(0,0,0)" stroke="rgb(0,0,0)">G</text>
<line style="fill:none;stroke-width:1" stroke="rgb(0,0,0)" x1="236" y1="197" x2="201" y2="188"/> <circle style="stroke-width:1" cx="236" cy="197" r="12" fill="rgb(255,255,255)" stroke="rgb(0,0,0)"/> <text x="228" y="205" fill="rgb(0,0,0)" stroke="rgb(0,0,0)">G</text>
<line style="fill:none;stroke-width:1" stroke="rgb(0,0,0)" x1="201" y1="188" x2="168" y2="164"/> <circle style="stroke-width:1" cx="201" cy="188" r="12" fill="rgb(255,255,255)" stroke="rgb(0,0,0)"/> <text x="193" y="196" fill="rgb(0,0,0)" stroke="rgb(0,0,0)">T</text>
<line style="fill:none;stroke-width:1" stroke="rgb(0,0,0)" x1="168" y1="164" x2="151" y2="126"/> <line style="fill:none;stroke-width:1" stroke="rgb(0,0,0)" x1="168" y1="164" x2="81" y2="234"/> <rect x="66" y="222" width="30" height="24" fill="rgb(255,255,255)" stroke="rgb(255,255,255)"/> <text x="66" y="242" fill="rgb(0,0,0)" stroke="rgb(0,0,0)">10</text> <circle style="stroke-width:1" cx="168" cy="164" r="12" fill="rgb(255,255,255)" stroke="rgb(0,0,0)"/> <text x="160" y="172" fill="rgb(0,0,0)" stroke="rgb(0,0,0)">T</text>
<line style="fill:none;stroke-width:1" stroke="rgb(0,0,0)" x1="151" y1="126" x2="156" y2="85"/> <circle style="stroke-width:1" cx="151" cy="126" r="12" fill="rgb(255,255,255)" stroke="rgb(0,0,0)"/> <text x="143" y="134" fill="rgb(0,0,0)" stroke="rgb(0,0,0)">G</text>
<line style="fill:none;stroke-width:1" stroke="rgb(0,0,0)" x1="156" y1="85" x2="180" y2="52"/> <circle style="stroke-width:1" cx="156" cy="85" r="12" fill="rgb(255,255,255)" stroke="rgb(0,0,0)"/> <text x="148" y="93" fill="rgb(0,0,0)" stroke="rgb(0,0,0)">A</text>
<line style="fill:none;stroke-width:1" stroke="rgb(0,0,0)" x1="180" y1="52" x2="217" y2="36"/> <circle style="stroke-width:1" cx="180" cy="52" r="12" fill="rgb(255,255,255)" stroke="rgb(0,0,0)"/> <text x="172" y="60" fill="rgb(0,0,0)" stroke="rgb(0,0,0)">T</text>
<line style="fill:none;stroke-width:1" stroke="rgb(0,0,0)" x1="217" y1="36" x2="258" y2="40"/> <circle style="stroke-width:1" cx="217" cy="36" r="12" fill="rgb(255,255,255)" stroke="rgb(0,0,0)"/> <text x="209" y="44" fill="rgb(0,0,0)" stroke="rgb(0,0,0)">T</text>
<line style="fill:none;stroke-width:1" stroke="rgb(0,0,0)" x1="258" y1="40" x2="291" y2="64"/> <circle style="stroke-width:1" cx="258" cy="40" r="12" fill="rgb(255,255,255)" stroke="rgb(0,0,0)"/> <text x="250" y="48" fill="rgb(0,0,0)" stroke="rgb(0,0,0)">T</text>
<line style="fill:none;stroke-width:1" stroke="rgb(0,0,0)" x1="291" y1="64" x2="308" y2="101"/> <circle style="stroke-width:1" cx="291" cy="64" r="12" fill="rgb(255,255,255)" stroke="rgb(0,0,0)"/> <text x="283" y="72" fill="rgb(0,0,0)" stroke="rgb(0,0,0)">C</text>
<line style="fill:none;stroke-width:1" stroke="rgb(0,0,0)" x1="308" y1="101" x2="304" y2="142"/> <circle style="stroke-width:1" cx="308" cy="101" r="12" fill="rgb(255,255,255)" stroke="rgb(0,0,0)"/> <text x="300" y="109" fill="rgb(0,0,0)" stroke="rgb(0,0,0)">T</text>
<line style="fill:none;stroke-width:1" stroke="rgb(0,0,0)" x1="304" y1="142" x2="286" y2="175"/> <circle style="stroke-width:1" cx="304" cy="142" r="12" fill="rgb(255,255,255)" stroke="rgb(0,0,0)"/> <text x="296" y="150" fill="rgb(0,0,0)" stroke="rgb(0,0,0)">T</text>
<line style="fill:none;stroke-width:1" stroke="rgb(0,0,0)" x1="286" y1="175" x2="298" y2="203"/> <circle style="stroke-width:1" cx="286" cy="175" r="12" fill="rgb(255,255,255)" stroke="rgb(0,0,0)"/> <text x="278" y="183" fill="rgb(0,0,0)" stroke="rgb(0,0,0)">C</text>
<line style="fill:none;stroke-width:1" stroke="rgb(0,0,0)" x1="298" y1="203" x2="336" y2="237"/> <line style="fill:none;stroke-width:1" stroke="rgb(0,0,0)" x1="298" y1="203" x2="400" y2="158"/> <rect x="385" y="146" width="30" height="24" fill="rgb(255,255,255)" stroke="rgb(255,255,255)"/> <text x="385" y="166" fill="rgb(0,0,0)" stroke="rgb(0,0,0)">20</text> <circle style="stroke-width:1" cx="298" cy="203" r="12" fill="rgb(255,255,255)" stroke="rgb(0,0,0)"/> <text x="290" y="211" fill="rgb(0,0,0)" stroke="rgb(0,0,0)">T</text>
<line style="fill:none;stroke-width:1" stroke="rgb(0,0,0)" x1="336" y1="237" x2="336" y2="289"/> <circle style="stroke-width:1" cx="336" cy="237" r="12" fill="rgb(255,255,255)" stroke="rgb(0,0,0)"/> <text x="328" y="245" fill="rgb(0,0,0)" stroke="rgb(0,0,0)">T</text>
<line style="fill:none;stroke-width:1" stroke="rgb(0,0,0)" x1="336" y1="289" x2="348" y2="317"/> <circle style="stroke-width:1" cx="336" cy="289" r="12" fill="rgb(255,255,255)" stroke="rgb(0,0,0)"/> <text x="328" y="297" fill="rgb(0,0,0)" stroke="rgb(0,0,0)">G</text>
<line style="fill:none;stroke-width:1" stroke="rgb(0,0,0)" x1="348" y1="317" x2="360" y2="345"/> <circle style="stroke-width:1" cx="348" cy="317" r="12" fill="rgb(255,255,255)" stroke="rgb(0,0,0)"/> <text x="340" y="325" fill="rgb(0,0,0)" stroke="rgb(0,0,0)">C</text>
<line style="fill:none;stroke-width:1" stroke="rgb(0,0,0)" x1="360" y1="345" x2="372" y2="373"/> <circle style="stroke-width:1" cx="360" cy="345" r="12" fill="rgb(255,255,255)" stroke="rgb(0,0,0)"/> <text x="352" y="353" fill="rgb(0,0,0)" stroke="rgb(0,0,0)">G</text>
<line style="fill:none;stroke-width:1" stroke="rgb(0,0,0)" x1="372" y1="373" x2="445" y2="406"/> <circle style="stroke-width:1" cx="372" cy="373" r="12" fill="rgb(255,255,255)" stroke="rgb(0,0,0)"/> <text x="364" y="381" fill="rgb(0,0,0)" stroke="rgb(0,0,0)">C</text>
<line style="fill:none;stroke-width:1" stroke="rgb(0,0,0)" x1="445" y1="406" x2="488" y2="454"/> <circle style="stroke-width:1" cx="445" cy="406" r="12" fill="rgb(255,255,255)" stroke="rgb(0,0,0)"/> <text x="437" y="414" fill="rgb(0,0,0)" stroke="rgb(0,0,0)">T</text>
<line style="fill:none;stroke-width:1" stroke="rgb(0,0,0)" x1="488" y1="454" x2="501" y2="517"/> <circle style="stroke-width:1" cx="488" cy="454" r="12" fill="rgb(255,255,255)" stroke="rgb(0,0,0)"/> <text x="480" y="462" fill="rgb(0,0,0)" stroke="rgb(0,0,0)">T</text>
<line style="fill:none;stroke-width:1" stroke="rgb(0,0,0)" x1="501" y1="517" x2="482" y2="579"/> <circle style="stroke-width:1" cx="501" cy="517" r="12" fill="rgb(255,255,255)" stroke="rgb(0,0,0)"/> <text x="493" y="525" fill="rgb(0,0,0)" stroke="rgb(0,0,0)">T</text>
<line style="fill:none;stroke-width:1" stroke="rgb(0,0,0)" x1="482" y1="579" x2="436" y2="623"/> <circle style="stroke-width:1" cx="482" cy="579" r="12" fill="rgb(255,255,255)" stroke="rgb(0,0,0)"/> <text x="474" y="587" fill="rgb(0,0,0)" stroke="rgb(0,0,0)">T</text>
<line style="fill:none;stroke-width:1" stroke="rgb(0,0,0)" x1="436" y1="623" x2="490" y2="720"/> <rect x="475" y="708" width="30" height="24" fill="rgb(255,255,255)" stroke="rgb(255,255,255)"/> <text x="475" y="728" fill="rgb(0,0,0)" stroke="rgb(0,0,0)">30</text> <circle style="stroke-width:1" cx="436" cy="623" r="12" fill="rgb(255,255,255)" stroke="rgb(0,0,0)"/> <text x="428" y="631" fill="rgb(0,0,0)" stroke="rgb(0,0,0)">T</text>
</g>
<g font-size="16">
<text x="36" y="892" fill="rgb(0,0,0)" stroke="rgb(0,0,0)">ENERGY = -3.5  repeat</text>
</g>
</svg>
